# xmcd
#
# Track frame offsets:
#	150
#	22683
#	32337
#	58968
#	84522
#	108776
#	132584
#	154183
#	171873
#	187886
#	209891
#	225783
#
# Disc length: 3268 seconds
#
# Revision: 1
# Processed by: cddbd v1.5.2PL0 Copyright (c) Steve Scherf et al.
# Submitted via: audiograbber 1.83.01
#
DISCID=910cc20c
DTITLE=Mojo Society - Mojo Groove
DYEAR=2006
DGENRE=Blues - Rock
TTITLE0=Mojo Groove
TTITLE1=Não tire o meu blues
TTITLE2=When the night comes falling from the sky
TTITLE3=How blue can you get
TTITLE4=Quero ver você
TTITLE5=Lady Blow
TTITLE6=Fim de semana na serra
TTITLE7=Vou embora daqui
TTITLE8=Whole lotta changes
TTITLE9=Apenas um sonho ruim
TTITLE10=Eyesight to the blind
TTITLE11=The hunter
EXTD=
EXTT0=
EXTT1=
EXTT2=
EXTT3=
EXTT4=
EXTT5=
EXTT6=
EXTT7=
EXTT8=
EXTT9=
EXTT10=
EXTT11=
PLAYORDER=
